# xmcd
#
# Track frame offsets:
#	150
#	16938
#	34558
#	49587
#	69933
#	84648
#	97499
#	114625
#	135641
#	152019
#	172134
#	186014
#
# Disc length: 2708 seconds
#
# Revision: 0
# Processed by: cddbd v1.5.1PL0 Copyright (c) Steve Scherf et al.
# Submitted via: dBpowerAMP V4.0
#
DISCID=9c0a920c
DTITLE=As Mineirinhas - As Mineirinhas
DYEAR=2001
DGENRE=Sertanejo
TTITLE0=Entre o Mar e a Estrela
TTITLE1=Tatuagem
TTITLE2=Você Precisa Mudar
TTITLE3=Me Sinto Morrer Por Dentro
TTITLE4=Que Saudade de Você
TTITLE5=Mulher Sempre Mulher
TTITLE6=Foi Deus Quem Fez Você
TTITLE7=Volta
TTITLE8=A Felicidade Voa
TTITLE9=I Love You Baby
TTITLE10=Meu Sangue Ferve Por Você
TTITLE11=Vida Pelo Avesso
EXTD=
EXTT0=
EXTT1=
EXTT2=
EXTT3=
EXTT4=
EXTT5=
EXTT6=
EXTT7=
EXTT8=
EXTT9=
EXTT10=
EXTT11=
PLAYORDER=
